<svg xmlns="http://www.w3.org/2000/svg" width="1024" height="1024" viewBox="0 0 1024 1024">
  <!-- Solid, simple shapes only -->
  <path d="M735 360
           L335 540
           L510 600
           L565 760
           Z"
        fill="#000000"/>
  <path d="M330 640
           C290 640, 260 610, 260 570
           C260 535, 285 507, 318 502
           C332 445, 384 405, 446 405
           C503 405, 552 438, 571 488
           C585 482, 602 478, 620 478
           C680 478, 730 526, 730 586
           C730 620, 706 647, 672 653
           C655 700, 610 730, 557 730
           L360 730
           C342 730, 330 712, 330 694
           Z"
        fill="#000000" opacity="0.92"/>
</svg>